<svg width="93" height="92" viewBox="0 0 93 92" fill="none" xmlns="http://www.w3.org/2000/svg">
<path d="M56.7921 71.523C53.0689 73.0138 49.062 73.6624 45.0586 73.4226C41.0552 73.1827 37.1544 72.0601 33.6359 70.1354C30.1173 68.2106 27.0681 65.5314 24.7068 62.2896C22.3455 59.0479 20.7306 55.3239 19.9777 51.3846C19.2249 47.4453 19.3529 43.3883 20.3524 39.5043C21.3519 35.6202 23.1982 32.0054 25.7591 28.9189C28.3199 25.8323 31.5318 23.3505 35.1646 21.6512C38.7975 19.952 42.7612 19.0774 46.7717 19.0902V3.43347C40.4723 3.41856 34.2475 4.79566 28.5422 7.46631C22.8369 10.137 17.7921 14.0352 13.7686 18.8823C9.74513 23.7293 6.84231 29.4055 5.26766 35.505C3.693 41.6044 3.4854 47.9764 4.65978 54.1654C5.83416 60.3544 8.36147 66.2074 12.061 71.3061C15.7605 76.4047 20.5409 80.623 26.0603 83.6592C31.5797 86.6955 37.7018 88.4748 43.9888 88.8699C50.2758 89.2649 56.5724 88.266 62.4285 85.9446L56.7921 71.523Z" fill="#C8C8C8" stroke="#C8C8C8" stroke-width="6" stroke-miterlimit="10"/>
<path d="M62.5152 85.9794C71.7558 82.3162 79.4315 75.5481 84.2227 66.8387C89.0138 58.1293 90.621 48.0228 88.7679 38.2568C86.9147 28.4908 81.7171 19.6756 74.0686 13.3266C66.4201 6.97769 56.7986 3.49179 46.8584 3.46826V19.125C53.1848 19.125 59.3132 21.3309 64.1882 25.363C69.0633 29.395 72.3797 35.0008 73.5665 41.2149C74.7533 47.429 73.7361 53.8624 70.6901 59.4072C67.644 64.9521 62.7599 69.2612 56.8787 71.5925L62.5152 85.9794Z" fill="#D72329" stroke="#D72329" stroke-width="6" stroke-miterlimit="10" stroke-linecap="square"/>
<path d="M39.9829 49.9252V51.7192H37.9419V49.9252H33.6129V48.0922L37.3569 42.5152H39.9699V48.1572H41.2439V49.9252H39.9829ZM37.9549 44.7512H37.9159L35.7319 48.1572H37.9549V44.7512ZM48.3872 49.9252V51.7192H46.3462V49.9252H42.0172V48.0922L45.7612 42.5152H48.3742V48.1572H49.6482V49.9252H48.3872ZM46.3592 44.7512H46.3202L44.1362 48.1572H46.3592V44.7512ZM61.6535 49.4182C61.6535 49.7562 61.5885 50.0769 61.4585 50.3802C61.3285 50.6749 61.1509 50.9349 60.9255 51.1602C60.7089 51.3769 60.4489 51.5502 60.1455 51.6802C59.8422 51.8102 59.5215 51.8752 59.1835 51.8752C58.8455 51.8752 58.5249 51.8102 58.2215 51.6802C57.9182 51.5502 57.6539 51.3769 57.4285 51.1602C57.2119 50.9349 57.0385 50.6749 56.9085 50.3802C56.7785 50.0769 56.7135 49.7562 56.7135 49.4182C56.7135 49.0802 56.7785 48.7639 56.9085 48.4692C57.0385 48.1659 57.2119 47.9059 57.4285 47.6892C57.6539 47.4639 57.9182 47.2862 58.2215 47.1562C58.5249 47.0262 58.8455 46.9612 59.1835 46.9612C59.5215 46.9612 59.8422 47.0262 60.1455 47.1562C60.4489 47.2862 60.7089 47.4639 60.9255 47.6892C61.1509 47.9059 61.3285 48.1659 61.4585 48.4692C61.5885 48.7639 61.6535 49.0802 61.6535 49.4182ZM60.1975 49.4182C60.1975 49.2796 60.1672 49.1496 60.1065 49.0282C60.0545 48.8982 59.9809 48.7899 59.8855 48.7032C59.7989 48.6079 59.6949 48.5342 59.5735 48.4822C59.4522 48.4302 59.3222 48.4042 59.1835 48.4042C58.9062 48.4042 58.6679 48.5039 58.4685 48.7032C58.2692 48.9026 58.1695 49.1409 58.1695 49.4182C58.1695 49.6956 58.2692 49.9339 58.4685 50.1332C58.6679 50.3239 58.9062 50.4192 59.1835 50.4192C59.3222 50.4192 59.4522 50.3932 59.5735 50.3412C59.6949 50.2892 59.7989 50.2199 59.8855 50.1332C59.9809 50.0379 60.0545 49.9296 60.1065 49.8082C60.1672 49.6869 60.1975 49.5569 60.1975 49.4182ZM55.4135 44.8162C55.4135 45.1542 55.3485 45.4749 55.2185 45.7782C55.0885 46.0729 54.9109 46.3329 54.6855 46.5582C54.4689 46.7749 54.2089 46.9482 53.9055 47.0782C53.6022 47.2082 53.2815 47.2732 52.9435 47.2732C52.6055 47.2732 52.2849 47.2082 51.9815 47.0782C51.6782 46.9482 51.4139 46.7749 51.1885 46.5582C50.9719 46.3329 50.7985 46.0729 50.6685 45.7782C50.5385 45.4749 50.4735 45.1542 50.4735 44.8162C50.4735 44.4696 50.5385 44.1489 50.6685 43.8542C50.7985 43.5509 50.9719 43.2909 51.1885 43.0742C51.4139 42.8489 51.6782 42.6756 51.9815 42.5542C52.2849 42.4242 52.6055 42.3592 52.9435 42.3592C53.2815 42.3592 53.6022 42.4242 53.9055 42.5542C54.2089 42.6756 54.4689 42.8489 54.6855 43.0742C54.9109 43.2909 55.0885 43.5509 55.2185 43.8542C55.3485 44.1489 55.4135 44.4696 55.4135 44.8162ZM53.9575 44.8162C53.9575 44.5389 53.8579 44.3006 53.6585 44.1012C53.4592 43.9019 53.2209 43.8022 52.9435 43.8022C52.6662 43.8022 52.4279 43.9019 52.2285 44.1012C52.0292 44.3006 51.9295 44.5389 51.9295 44.8162C51.9295 45.0936 52.0292 45.3319 52.2285 45.5312C52.4279 45.7219 52.6662 45.8172 52.9435 45.8172C53.2209 45.8172 53.4592 45.7219 53.6585 45.5312C53.8579 45.3319 53.9575 45.0936 53.9575 44.8162ZM53.9445 52.1612L52.7875 51.5892L58.1565 42.0992L59.3655 42.6842L53.9445 52.1612Z" fill="#1D1D1D"/>
</svg>
